<?xml version="1.0" encoding="UTF-8" standalone="no"?>
<!-- Created with Inkscape (http://www.inkscape.org/) -->

<svg
   version="1.1"
   id="svg1"
   width="90.239998"
   height="103.68"
   viewBox="0 0 90.239998 103.68"
   xml:space="preserve"
   xmlns="http://www.w3.org/2000/svg"
   xmlns:svg="http://www.w3.org/2000/svg"><defs
     id="defs1" /><path
     fill="#000000"
     opacity="1"
     stroke="none"
     d="m 47.773521,99.109099 c -1.297885,0 -2.595772,0 -4.109229,-0.06273 C 42.988477,98.693496 42.536766,98.388657 42.06674,98.11532 30.250724,91.243655 18.436966,84.36809 6.6087507,77.51748 c -1.189326,-0.688827 -2.279176,-1.399153 -2.625316,-2.835506 0,0 0,-0.148946 0.007,-0.346651 0.31754,-0.910134 0.21112,-1.664741 0.2114,-2.403575 0.005,-13.850408 0.0107,-27.700822 -0.007,-41.551205 -0.002,-1.517938 0.20368,-2.810828 1.70539,-3.66201 C 18.852604,19.377035 31.78726,12.004258 44.724759,4.6365241 c 0.793744,-0.452025 1.558236,-0.524126 2.383044,-0.05619 9.107173,5.166724 18.205958,10.3485189 27.33874,15.4696609 3.500178,1.962699 6.888526,4.134563 10.564165,5.777735 0,17.383243 0,34.766484 -0.110345,52.298101 -0.776866,0.222686 -1.305305,0.612566 -1.863942,0.92666 -10.152683,5.70844 -20.311057,11.406829 -30.447017,17.144808 -1.630194,0.922856 -3.389156,1.646641 -4.815163,2.911799 M 28.529371,46.440974 c 5.82849,9.894192 11.656986,19.788386 17.676148,30.006251 7.763088,-13.294172 15.315838,-26.228137 22.868586,-39.162099 -0.102573,-0.147769 -0.205147,-0.295541 -0.30772,-0.443308 -15.179109,-0.310191 -30.359868,-0.118528 -45.994528,-0.19032 2.051129,3.480514 3.8534,6.538748 5.757514,9.789476 M 11.891173,74.289281 c 10.396631,1.424503 20.793262,2.849007 31.189894,4.273507 0.06745,-0.16051 0.134892,-0.321023 0.202337,-0.481533 C 35.734717,65.250188 28.186034,52.419118 20.61762,39.554517 c -0.569464,0.417257 -0.652207,0.809124 -0.785246,1.175984 -3.752519,10.347574 -7.509944,20.69336 -11.2577673,31.042631 -0.69993,1.932796 -0.662979,1.965839 1.4406083,2.246006 0.539696,0.07188 1.075807,0.170677 1.875958,0.270143 M 80.675395,63.631304 C 77.721798,55.663915 74.768208,47.69653 71.694477,39.405068 64.054374,52.511828 56.610536,65.281887 48.965919,78.396386 c 2.420784,0.06693 4.349857,-0.382076 6.27175,-0.63451 9.173784,-1.204954 18.331605,-2.531508 27.505413,-3.736307 1.36553,-0.179337 1.561096,-0.609501 1.096748,-1.804848 -1.076804,-2.771892 -2.065515,-5.577999 -3.164435,-8.589417 M 40.469918,14.496093 c -5.534012,6.163818 -11.068026,12.327637 -16.602039,18.491454 0.07555,0.112973 0.151091,0.225943 0.226637,0.338915 14.591504,0 29.18301,0 43.969597,0 -0.616824,-1.4426 -1.68568,-2.271689 -2.553266,-3.239969 C 59.421138,23.289986 53.29271,16.528027 47.23139,9.7063881 46.287949,8.6446011 45.681025,8.6301501 44.787031,9.6932481 43.447626,11.286009 42.003158,12.790419 40.469918,14.496092 m -0.666905,78.412861 c 1.529263,0.74313 2.855483,1.906606 4.457542,2.342481 0.546348,-0.467675 0.412946,-0.944802 0.414388,-1.371812 0.01135,-3.370428 -0.02922,-6.741484 0.02484,-10.111075 0.02014,-1.25572 -0.460531,-1.704631 -1.704605,-1.865806 -6.225696,-0.8065 -12.437511,-1.719568 -18.65699,-2.574925 -3.163523,-0.435074 -6.332913,-0.827496 -9.499651,-1.239194 -0.03249,0.08779 -0.06498,0.175583 -0.09747,0.263375 8.291279,4.815593 16.582558,9.631179 25.061956,14.556956 M 69.887098,82.631662 c 2.534838,-1.435276 5.069682,-2.870545 7.60452,-4.30582 -9.427496,1.033053 -18.729231,2.336624 -28.041419,3.560572 -1.221409,0.160555 -1.597674,0.637175 -1.581218,1.794851 0.04578,3.221354 0.01055,6.443819 0.02195,9.665792 0.0015,0.421654 -0.145386,0.914018 0.558803,1.319121 7.011933,-3.940348 14.126693,-7.938487 21.437347,-12.034516 M 84.598497,45.637593 c 0,-4.774996 0,-9.549995 0,-14.248159 -0.860001,-0.205718 -1.263785,0.150737 -1.70014,0.348965 -2.437898,1.107496 -4.837145,2.306094 -7.30869,3.331065 -1.29663,0.537718 -1.563726,1.16184 -1.057164,2.475722 1.800782,4.670784 3.493749,9.383104 5.233136,14.077623 1.524431,4.114379 3.056354,8.225976 4.584976,12.338801 0.08263,-0.01755 0.165247,-0.03507 0.247873,-0.0526 0,-5.991172 0,-11.982341 9e-6,-18.271412 M 13.718411,34.158381 C 11.759734,33.432556 9.9747326,32.239778 7.7362887,31.76217 c 0,10.790916 0,21.370124 0,31.949336 3.4154553,-8.807667 6.6166913,-17.651609 9.8441263,-26.485981 0.334305,-0.915088 0.02966,-1.385486 -0.797667,-1.722914 -0.962686,-0.392639 -1.90415,-0.837308 -3.064337,-1.34423 m 6.331635,-1.973671 c 5.573513,-6.19796 11.147026,-12.395922 16.720536,-18.593881 -0.109838,-0.1221 -0.21968,-0.244201 -0.329519,-0.366301 -8.841965,5.028113 -17.683931,10.056226 -26.5844254,15.117624 0.2578464,0.329928 0.3217114,0.494569 0.4365034,0.546383 2.754468,1.243267 5.513535,2.476366 8.274096,3.706086 0.501407,0.223355 0.965869,0.184293 1.482809,-0.409911 M 71.301171,22.134122 c -5.257718,-2.956447 -10.515432,-5.912893 -15.773147,-8.869338 -0.08953,0.123879 -0.179051,0.24776 -0.268579,0.37164 5.567742,6.193925 11.138029,12.385571 16.699033,18.585541 0.517694,0.57717 1.027467,0.40174 1.602583,0.131439 1.526326,-0.717352 3.083936,-1.370597 4.591784,-2.12402 1.174396,-0.586806 2.507122,-0.896636 3.766588,-2.065246 -3.577358,-2.030476 -7.003173,-3.974939 -10.618262,-6.030016 z"
     id="path1-4"
     style="display:none;opacity:0.336;stroke-width:0.698;stroke-dasharray:none" /><path
     style="fill:#1a1a1a;stroke:#000000;stroke-width:3.398;stroke-linecap:round;stroke-dasharray:none;stroke-opacity:1"
     d="M 5.9049989,29.343302 V 74.675523"
     id="path23" /><path
     style="fill:#1a1a1a;stroke:#000000;stroke-width:3.398;stroke-linecap:round;stroke-dasharray:none;stroke-opacity:1"
     d="M 45.877298,80.035445 5.5416143,74.584677"
     id="path24" /><path
     style="fill:#1a1a1a;stroke:#000000;stroke-width:3.398;stroke-linecap:round;stroke-dasharray:none;stroke-opacity:1"
     d="M 45.695606,97.205365 V 80.035445"
     id="path25" /><path
     style="fill:#1a1a1a;stroke:#000000;stroke-width:3.398;stroke-linecap:round;stroke-dasharray:none;stroke-opacity:1"
     d="M 45.059683,97.841288 5.3718046,74.92748"
     id="path26" /><path
     style="fill:#1a1a1a;stroke:#000000;stroke-width:3.398;stroke-linecap:round;stroke-dasharray:none;stroke-opacity:1"
     d="M 46.058991,97.477903 85.486213,75.947369"
     id="path27" /><path
     style="fill:#1a1a1a;stroke:#000000;stroke-width:3.398;stroke-linecap:round;stroke-dasharray:none;stroke-opacity:1"
     d="m 46.240683,80.126291 39.24553,-4.723999"
     id="path28" /><path
     style="fill:#1a1a1a;stroke:#000000;stroke-width:3.37869;stroke-linecap:round;stroke-dasharray:none;stroke-opacity:1"
     d="M 85.849598,28.539492 V 75.603245"
     id="path29" /><path
     style="fill:#1a1a1a;stroke:#000000;stroke-width:3.398;stroke-linecap:round;stroke-dasharray:none;stroke-opacity:1"
     d="M 71.22337,34.79407 86.212983,72.767754"
     id="path30" /><path
     style="fill:#1a1a1a;stroke:#000000;stroke-width:3.398;stroke-linecap:round;stroke-dasharray:none;stroke-opacity:1"
     d="M 46.422375,79.581215 72.131832,34.975762"
     id="path31" /><path
     style="fill:#1a1a1a;stroke:#000000;stroke-width:3.398;stroke-linecap:round;stroke-dasharray:none;stroke-opacity:1"
     d="M 19.98615,35.248301 46.604067,79.308676"
     id="path32" /><path
     style="fill:#1a1a1a;stroke:#000000;stroke-width:3.398;stroke-linecap:round;stroke-dasharray:none;stroke-opacity:1"
     d="M 5.8141527,74.584677 20.167842,34.521531"
     id="path33" /><path
     style="fill:#1a1a1a;stroke:#000000;stroke-width:3.398;stroke-linecap:round;stroke-dasharray:none;stroke-opacity:1"
     d="m 72.313524,34.884916 c -1.271846,0.09085 -52.41822,0 -52.41822,0"
     id="path34" /><path
     style="fill:#1a1a1a;stroke:#000000;stroke-width:3.398;stroke-linecap:round;stroke-dasharray:none;stroke-opacity:1"
     d="M 5.9958449,28.889071 20.258688,34.975762"
     id="path35" /><path
     style="fill:#1a1a1a;stroke:#000000;stroke-width:3.29771;stroke-linecap:round;stroke-dasharray:none;stroke-opacity:1"
     d="M 72.081686,35.116754 85.599651,28.3425"
     id="path36" /><path
     style="fill:#1a1a1a;stroke:#000000;stroke-width:3.398;stroke-linecap:round;stroke-dasharray:none;stroke-opacity:1"
     d="M 45.513914,5.5416143 72.040985,34.703224"
     id="path37" /><path
     style="fill:#1a1a1a;stroke:#000000;stroke-width:3.398;stroke-linecap:round;stroke-dasharray:none;stroke-opacity:1"
     d="M 20.167842,34.430685 45.513914,5.6324604"
     id="path38" /><path
     style="fill:#1a1a1a;stroke:#000000;stroke-width:3.398;stroke-linecap:round;stroke-dasharray:none;stroke-opacity:1"
     d="M 6.3592295,28.616533 45.60476,5.5416143"
     id="path39" /><path
     style="fill:#1a1a1a;stroke:#000000;stroke-width:3.398;stroke-linecap:round;stroke-dasharray:none;stroke-opacity:1"
     d="M 85.486213,28.616533 46.876606,5.6324604"
     id="path40" /></svg>
